<svg width="1200" height="630" viewBox="0 0 1200 630" fill="none" xmlns="http://www.w3.org/2000/svg">
  <defs>
    <linearGradient id="bg" x1="0" y1="0" x2="0" y2="1">
      <stop offset="0%" stop-color="#F8FAFC" />
      <stop offset="100%" stop-color="#EEF2FF" />
    </linearGradient>
    <radialGradient id="radial1" cx="0" cy="0" r="1" gradientUnits="userSpaceOnUse" gradientTransform="translate(1080 0) scale(900 450)">
      <stop offset="0%" stop-color="#3B82F6" stop-opacity="0.16" />
      <stop offset="60%" stop-color="#3B82F6" stop-opacity="0" />
    </radialGradient>
    <radialGradient id="radial2" cx="0" cy="0" r="1" gradientUnits="userSpaceOnUse" gradientTransform="translate(0 630) scale(700 400)">
      <stop offset="0%" stop-color="#10B981" stop-opacity="0.14" />
      <stop offset="60%" stop-color="#10B981" stop-opacity="0" />
    </radialGradient>
    <filter id="cardShadow" x="60" y="60" width="1080" height="510" filterUnits="userSpaceOnUse" color-interpolation-filters="sRGB">
      <feDropShadow dx="0" dy="12" stdDeviation="20" flood-color="#0F172A" flood-opacity="0.12" />
    </filter>
  </defs>

  <rect width="1200" height="630" fill="url(#bg)" />
  <rect width="1200" height="630" fill="url(#radial1)" />
  <rect width="1200" height="630" fill="url(#radial2)" />

  <circle cx="120" cy="80" r="140" stroke="#E2E8F0" stroke-width="1" opacity="0.25" />
  <circle cx="1020" cy="140" r="120" stroke="#E2E8F0" stroke-width="1" opacity="0.25" />
  <circle cx="300" cy="540" r="90" stroke="#E2E8F0" stroke-width="1" opacity="0.25" />

  <rect x="80" y="80" width="1040" height="470" rx="36" fill="#FFFFFF" fill-opacity="0.92" stroke="#E2E8F0" filter="url(#cardShadow)" />

  <g transform="translate(140 150)">
    <rect width="56" height="56" rx="16" fill="#FFFFFF" stroke="#E2E8F0" />
    <g transform="translate(14 12)">
      <path d="M4 2v20l2-1 2 1 2-1 2 1 2-1 2 1V2l-2 1-2-1-2 1-2-1-2 1-2-1Z" fill="#16A34A" />
      <path d="M16 8h-6a2 2 0 1 0 0 4h6" stroke="#FFFFFF" stroke-width="1.8" stroke-linecap="round" stroke-linejoin="round" />
      <path d="M12 17.5v-11" stroke="#FFFFFF" stroke-width="1.8" stroke-linecap="round" />
    </g>
  </g>

  <text x="220" y="188" fill="#64748B" font-size="12" font-family="Inter, Arial, sans-serif" letter-spacing="6">SPLITSIMPLE</text>

  <text x="140" y="260" fill="#0F172A" font-size="60" font-family="Inter, Arial, sans-serif" font-weight="700">Split bills in seconds.</text>
  <text x="140" y="310" fill="#475569" font-size="22" font-family="Inter, Arial, sans-serif">
    Split expenses with friends and colleagues effortlessly. Assign items, tips, and taxes with a clean
  </text>
  <text x="140" y="342" fill="#475569" font-size="22" font-family="Inter, Arial, sans-serif">
    spreadsheet workflow.
  </text>

  <g font-family="Inter, Arial, sans-serif" font-size="14" font-weight="600" fill="#475569">
    <rect x="140" y="380" width="150" height="34" rx="17" fill="#FFFFFF" stroke="#E2E8F0" />
    <text x="160" y="402">Real-time totals</text>

    <rect x="308" y="380" width="130" height="34" rx="17" fill="#FFFFFF" stroke="#E2E8F0" />
    <text x="330" y="402">Receipt scan</text>

    <rect x="456" y="380" width="150" height="34" rx="17" fill="#FFFFFF" stroke="#E2E8F0" />
    <text x="476" y="402">Shareable links</text>
  </g>

  <text x="140" y="460" fill="#64748B" font-size="14" font-family="Space Mono, ui-monospace, SFMono-Regular, Menlo, monospace">splitsimple.anuragd.me</text>
</svg>
